<svg xmlns="http://www.w3.org/2000/svg" xmlns:xlink="http://www.w3.org/1999/xlink" width="23" height="20"><defs><path id="a" d="M1671.53 523.25c-1.78 0-3.43-.44-4.85-1.2-1.28.5-2.76 1-4.5 1.5l1.62-3.88a8.03 8.03 0 0 1-1.8-5.03c0-6.85 8.56-11.13 14.98-7.06 7.57 4.8 3.88 15.67-5.45 15.67zm7.25-12.21v-.02c-4.22-6.59-15.58-3.91-15.58 3.62 0 2.84 1.8 4.5 2 4.82l-.89 2.13c1.32-.45 2.11-.78 2.44-.9.26.1 2.03 1.32 4.78 1.32 6.35 0 10.36-6.08 7.25-10.97zm4.82 11.97l1.26 3a36.25 36.25 0 0 1-3.48-1.16 7.96 7.96 0 0 1-8.3-.5c5.3-.72 9.54-5.07 9.1-10.46 3.1 2.2 3.75 6.21 1.42 9.12z"/></defs><use fill="#90a4ae" xlink:href="#a" transform="translate(-1662 -506)"/></svg>