<svg xmlns="http://www.w3.org/2000/svg" xmlns:xlink="http://www.w3.org/1999/xlink" width="13" height="13"><defs><path id="a" d="M534.9 2886.94c-1.69 0-3.06-1.67-3.06-3.71 0-.97.31-1.9.87-2.59a2.79 2.79 0 0 1 2.18-1.12c1.68 0 3.05 1.67 3.05 3.7 0 2.05-1.37 3.72-3.05 3.72zm0-6.6c-1.24 0-2.24 1.3-2.24 2.89 0 1.6 1 2.9 2.23 2.9s2.23-1.3 2.23-2.9c0-1.6-1-2.9-2.23-2.9zm3.46 10.66h-8.22c-.63 0-1.14-.51-1.14-1.14 0-1.83 1.5-3.33 3.33-3.33a.4.4 0 1 1 0 .81 2.52 2.52 0 0 0-2.52 2.52c0 .18.15.33.33.33h9.5c.18 0 .33-.15.33-.33a2.52 2.52 0 0 0-2.52-2.52.4.4 0 1 1 0-.81c1.84 0 3.33 1.5 3.33 3.33 0 .63-.5 1.14-1.14 1.14zm.28-7.96a.4.4 0 0 1-.4-.5c.07-.27.1-.55.1-.83 0-1.6-1-2.9-2.23-2.9-.32 0-.63.09-.92.26a.4.4 0 1 1-.42-.7c.42-.24.88-.37 1.34-.37 1.68 0 3.05 1.66 3.05 3.7 0 .35-.04.7-.12 1.03a.4.4 0 0 1-.4.31zm2.9 5.93a.4.4 0 0 1-.37-.57.32.32 0 0 0 .02-.14 2.48 2.48 0 0 0-2.44-2.54.4.4 0 0 1 0-.81 3.29 3.29 0 0 1 3.25 3.35c0 .17-.03.32-.1.47a.4.4 0 0 1-.37.24z"/></defs><use fill="#3e3e3e" xlink:href="#a" transform="translate(-529 -2878)"/></svg>