<svg xmlns="http://www.w3.org/2000/svg" xmlns:xlink="http://www.w3.org/1999/xlink" width="13" height="13" viewBox="0 0 13 13"><defs><path id="a" d="M798 2673.03v9.75c0 .67-.55 1.22-1.22 1.22h-10.56c-.67 0-1.22-.55-1.22-1.22v-9.75c0-.67.55-1.22 1.22-1.22a.4.4 0 0 1 0 .81.4.4 0 0 0-.4.41v2.03h11.37v-2.03a.4.4 0 0 0-.4-.4.4.4 0 1 1 0-.82c.66 0 1.21.55 1.21 1.22zm-.81 9.75v-6.9H785.8v6.9c0 .22.18.4.4.4h10.57a.4.4 0 0 0 .4-.4zm-10.16-9.75v-1.62a.4.4 0 1 1 .81 0v1.62a.4.4 0 1 1-.8 0zm1.63 0v-1.62a.4.4 0 1 1 .8 0v1.62a.4.4 0 1 1-.8 0zm1.62 0v-1.62a.4.4 0 1 1 .81 0v1.62a.4.4 0 1 1-.8 0zm1.63 0v-1.62a.4.4 0 1 1 .8 0v1.62a.4.4 0 1 1-.8 0zm1.62 0v-1.62a.4.4 0 1 1 .81 0v1.62a.4.4 0 1 1-.8 0zm1.63 0v-1.62a.4.4 0 1 1 .8 0v1.62a.4.4 0 1 1-.8 0zm0 5.48c0 .4-.17.76-.43 1.02a1.42 1.42 0 0 1-1 2.44c-.78 0-1.42-.64-1.42-1.42a.4.4 0 1 1 .81 0 .61.61 0 1 0 .61-.61.4.4 0 1 1 0-.82.61.61 0 1 0-.6-.6.4.4 0 1 1-.82 0 1.42 1.42 0 0 1 2.85 0zm-5.69 1.97c-.2.21-.43.46-.6.68h1.41a.4.4 0 1 1 0 .8h-2.03a.4.4 0 0 1-.4-.4c0-.54.48-1.05 1.04-1.64.44-.46.98-1.03.98-1.4a.61.61 0 0 0-1.21 0 .4.4 0 1 1-.82 0 1.42 1.42 0 0 1 2.85 0c0 .7-.62 1.34-1.22 1.96z"/></defs><use fill="#555" xlink:href="#a" transform="translate(-785 -2671)"/></svg>