<svg xmlns="http://www.w3.org/2000/svg" xmlns:xlink="http://www.w3.org/1999/xlink" width="14" height="14" viewBox="0 0 14 14"><defs><path id="ksvwa" d="M900 2678.33a6.67 6.67 0 1 1-13.35-.01 6.67 6.67 0 0 1 13.35.01zm-.83 0a5.84 5.84 0 1 0-11.68.02 5.84 5.84 0 0 0 11.68-.02zm-3.04 2.3a.42.42 0 1 1-.6.6l-1.73-1.74a1.25 1.25 0 1 1-.88-2.33v-3.41a.42.42 0 0 1 .83 0v3.4c.48.18.83.64.83 1.18 0 .22-.06.42-.16.6zm-2.38-2.3a.42.42 0 1 0-.83 0 .42.42 0 0 0 .83 0z"/></defs><g><g transform="translate(-886 -2671)"><use fill="#555" xlink:href="#ksvwa"/></g></g></svg>