<svg xmlns="http://www.w3.org/2000/svg" xmlns:xlink="http://www.w3.org/1999/xlink" width="13" height="13" viewBox="0 0 13 13"><defs><path id="4maqa" d="M535.59 2676.8c-1.98 0-3.59-1.97-3.59-4.39a4.9 4.9 0 0 1 1.02-3.06 3.28 3.28 0 0 1 2.57-1.32c1.97 0 3.58 1.97 3.58 4.38 0 2.42-1.6 4.39-3.58 4.39zm0-7.97c-1.54 0-2.8 1.6-2.8 3.58s1.26 3.59 2.8 3.59c1.54 0 2.79-1.6 2.79-3.59 0-1.97-1.25-3.58-2.8-3.58zm3.78 11.95h-8.96a1.2 1.2 0 0 1-1.2-1.2c0-1.97 1.61-3.58 3.59-3.58a.4.4 0 1 1 0 .8 2.8 2.8 0 0 0-2.79 2.79c0 .21.18.4.4.4h10.36a.4.4 0 0 0 .4-.4 2.8 2.8 0 0 0-2.8-2.8.4.4 0 0 1 0-.8c1.98 0 3.6 1.62 3.6 3.6 0 .65-.54 1.19-1.2 1.19z"/></defs><g><g transform="translate(-529 -2668)"><use fill="#555" xlink:href="#4maqa"/></g></g></svg>