<svg xmlns="http://www.w3.org/2000/svg" width="481.781" height="481.781"><path d="M351.596 433.266H23.318V48.515h328.277c6.438 0 11.658-5.221 11.658-11.66 0-6.438-5.223-11.658-11.658-11.658H11.66C5.221 25.197 0 30.418 0 36.855v408.069c0 6.438 5.221 11.66 11.66 11.66h339.936c6.438 0 11.658-5.223 11.658-11.66s-5.221-11.658-11.658-11.658z"/><path d="M478.365 225.474l-71.891-71.902c-4.555-4.555-11.932-4.555-16.486 0-4.555 4.549-4.555 11.932 0 16.486l51.988 52h-217.87c-6.438 0-11.658 5.221-11.658 11.658 0 6.439 5.221 11.66 11.658 11.66h217.87l-51.988 51.986c-4.555 4.555-4.555 11.934 0 16.487a11.628 11.628 0 0 0 8.244 3.414c2.982 0 5.965-1.139 8.242-3.414l71.891-71.891c4.555-4.552 4.555-11.931 0-16.484z"/></svg>